# xmcd CD database file
# Copyright (C) 1995 Ti Kan
#
# Track frame offsets:
#	150
#	20212
#	33635
#	51562
#	72642
#	95990
#	109687
#	132790
#	146155
#	165482
#	181767
#
# Disc length: 2655 seconds
#
# Revision: 2
# Processed by: cddbd v1.5.1PL0 Copyright (c) Steve Scherf et al.
# Submitted via: NotifyCDPlayer 1.60beta16
#
DISCID=a90a5d0b
DTITLE=David Halley - Stray Dog Talk
DYEAR=1900
DGENRE=
TTITLE0=Tonight
TTITLE1=Darlene
TTITLE2=Live And Learn
TTITLE3=If Ever You Need Me
TTITLE4=Dreamlife
TTITLE5=Hard Livin´
TTITLE6=When It Comes To You
TTITLE7=Walk The Line
TTITLE8=Rain Just Falls
TTITLE9=Opportunity Knocking
TTITLE10=Further
EXTD=
EXTT0=
EXTT1=
EXTT2=
EXTT3=
EXTT4=
EXTT5=
EXTT6=
EXTT7=
EXTT8=
EXTT9=
EXTT10=
PLAYORDER=
